<svg width="55" height="33" viewBox="0 0 55 33" fill="none" xmlns="http://www.w3.org/2000/svg">
<path d="M54.452 11.3647H47.9663V4.60191C47.9663 4.45632 47.9085 4.31671 47.8056 4.21376C47.7026 4.11082 47.563 4.05298 47.4174 4.05298H37.501C37.3554 4.05298 37.2158 4.11082 37.1129 4.21376C37.0099 4.31671 36.9521 4.45632 36.9521 4.60191V11.3647H30.3951C30.2495 11.3647 30.1099 11.4226 30.007 11.5255C29.904 11.6284 29.8462 11.7681 29.8462 11.9137V21.5199C29.8462 21.6655 29.904 21.8051 30.007 21.9081C30.1099 22.011 30.2495 22.0689 30.3951 22.0689H36.9521V29.0485C36.9521 29.1941 37.0099 29.3337 37.1129 29.4366C37.2158 29.5396 37.3554 29.5974 37.501 29.5974H47.4174C47.563 29.5974 47.7026 29.5396 47.8056 29.4366C47.9085 29.3337 47.9663 29.1941 47.9663 29.0485V22.0689H54.452C54.5975 22.0689 54.7372 22.011 54.8401 21.9081C54.9431 21.8051 55.0009 21.6655 55.0009 21.5199V11.9137C55.0009 11.7681 54.9431 11.6284 54.8401 11.5255C54.7372 11.4226 54.5975 11.3647 54.452 11.3647Z" fill="#059669"/>
<path d="M36.8204 2.03298C36.0941 1.84496 35.3343 1.82711 34.6 1.98083C33.8232 1.54443 35.0638 1.03942 35.47 0.147405C35.47 0.130937 35.47 0.119954 35.4536 0.117209C34.8744 0.073295 31.9459 -1.06299 25.4713 4.76939C25.0847 5.07065 24.6467 5.2994 24.1785 5.44457C24.1926 5.45245 24.205 5.46307 24.2149 5.4758C24.2248 5.48853 24.232 5.50311 24.2362 5.51868C24.3899 6.01821 24.9827 7.87084 25.5591 8.72992C26.2425 9.74818 27.1784 10.47 27.0687 10.6182C26.8585 11.0145 26.6751 11.4243 26.5197 11.8451C26.4264 12.1003 24.8126 10.8982 23.6324 8.85068C22.916 7.60736 22.7788 6.19661 22.905 5.88647C21.143 6.4848 18.9665 7.30819 17.5063 9.29531C16.0461 11.2824 13.8477 13.7609 9.56329 16.5933C5.27889 19.4258 3.34391 22.7029 4.31277 27.7092C3.79953 28.5078 2.55346 28.0962 1.88102 27.4347C1.20858 26.7732 0.881974 24.3168 2.64129 22.3544C3.32471 21.5886 1.98531 22.1924 1.49951 22.5547C-0.010046 23.6882 -0.125322 25.4887 0.0750375 26.5811C0.783157 30.4017 3.80503 29.9433 4.78761 29.4685C5.11148 29.3093 5.24596 32.2296 6.2752 32.2845C7.83416 32.3668 11.9154 32.4409 13.8971 32.2845C14.188 32.2598 15.0444 31.914 14.7699 31.5928C14.1002 30.8134 12.651 31.0082 12.7663 30.6926C13.0408 29.9241 14.2868 30.4977 13.7214 26.2435C13.6364 25.5848 15.2804 25.7358 17.1852 23.5291C19.09 21.3224 20.2043 30.9204 22.0432 31.9579C23.3167 32.6797 24.7165 32.4135 24.7879 32.0649C24.9251 31.3925 23.808 30.7228 22.9133 29.7375C21.9664 28.6945 21.0798 22.3269 21.8868 21.7643C22.3973 21.4157 25.7842 25.6452 27.3019 27.7064C28.0595 28.7384 30.2113 32.021 31.2542 32.526C31.9706 32.8746 33.321 33.0997 34.0456 32.4931C34.3804 31.8206 32.8489 31.7301 32.2506 31.4254C31.1856 30.5499 25.9653 22.5684 25.5371 20.0653C25.3313 18.8577 26.0229 18.6052 26.5993 16.7004C27.1757 14.7956 26.9616 13.0555 26.5252 12.2623C26.3331 11.9165 27.4255 9.58625 27.9854 10.0666C28.7594 10.728 29.3824 10.2065 29.9588 12.1882C30.5351 14.1698 30.8124 14.2686 32.1545 14.2686C33.4966 14.2686 35.4316 13.8597 35.7829 13.0308C35.9814 12.6066 36.0108 12.1228 35.8653 11.6777C35.9235 11.9742 35.9327 12.2784 35.8927 12.5779C35.7856 13.5989 34.3365 13.9146 34.3365 13.9146C34.3365 13.9146 34.3008 13.9146 34.2926 13.7499C34.2951 13.3586 34.3318 12.9683 34.4024 12.5834C34.4792 12.2239 35.3685 11.5048 35.6951 11.3346C35.5832 11.1568 35.4454 10.9968 35.2861 10.8598C34.8497 10.4783 34.2651 8.74364 34.3255 8.38958C34.4765 7.54698 35.2367 7.92299 35.1105 6.89649C34.9842 5.87 34.1279 4.34123 34.5972 4.07774C36.3565 3.08967 36.6612 2.27999 36.8423 2.06316C36.8438 2.0597 36.8443 2.05594 36.8438 2.05223C36.8434 2.04852 36.842 2.04498 36.8398 2.04196C36.8376 2.03893 36.8346 2.03653 36.8312 2.03495C36.8278 2.03338 36.8241 2.0327 36.8204 2.03298Z" fill="#A1A1AA"/>
<path d="M35.8516 11.6858C35.8335 11.5563 35.776 11.4356 35.6869 11.34C35.6967 11.3513 35.7059 11.3633 35.7143 11.3756C35.7702 11.4743 35.8161 11.5782 35.8516 11.6858Z" fill="#3F3F46"/>
<path d="M34.3886 12.5916C34.3181 12.9764 34.2814 13.3667 34.2788 13.758C34.2788 13.9337 34.3227 13.9227 34.3227 13.9227C34.3227 13.9227 35.7719 13.6071 35.8789 12.5861C35.919 12.2865 35.9097 11.9824 35.8515 11.6858C35.8141 11.5789 35.7663 11.476 35.7088 11.3784C35.7003 11.366 35.6911 11.3541 35.6813 11.3427C35.3547 11.5129 34.4655 12.232 34.3886 12.5916Z" fill="#3F3F46"/>
<path d="M24.0715 5.43899C23.797 5.54054 23.1054 5.77657 22.9517 5.82872C22.9325 5.82872 22.916 5.85892 22.905 5.89185C23.3634 5.73541 23.7943 5.59269 24.1786 5.44997C24.1457 5.43248 24.1073 5.42854 24.0715 5.43899Z" fill="#3F3F46"/>
<path d="M23.6324 8.85599C24.8126 10.9035 26.4264 12.1057 26.5198 11.8504C26.6751 11.4297 26.8585 11.0198 27.0687 10.6235C27.1785 10.4753 26.2453 9.7535 25.5591 8.73523C24.9828 7.87616 24.3899 6.02352 24.2362 5.52399C24.232 5.50842 24.2248 5.49383 24.2149 5.48111C24.205 5.46838 24.1926 5.45777 24.1786 5.44989C23.7943 5.59261 23.3552 5.72435 22.905 5.89177C22.7788 6.20192 22.916 7.61267 23.6324 8.85599Z" fill="#3F3F46"/>
<path d="M39.1067 16.8704H42.7104C42.7104 16.8704 43.2593 15.7369 43.704 14.6747C44.209 13.4643 44.1074 11.4031 43.2703 10.5907C43.0123 10.3437 42.8174 11.587 42.5841 11.8395C42.1999 11.9548 42.3509 11.2027 41.7306 10.7169C41.4286 10.7169 41.5467 11.5403 41.2942 11.8148C40.8495 11.9218 40.3637 11.5403 39.2494 12.5064C38.9914 12.7315 38.3629 12.4351 37.9951 12.7205C37.6795 12.9456 37.6438 15.7808 39.1067 16.8704Z" fill="#A1A1AA"/>
<path d="M38.8322 17.1448V18.1686C38.8322 18.2414 38.8611 18.3112 38.9126 18.3626C38.964 18.4141 39.0338 18.443 39.1066 18.443H42.5182C42.6451 18.4394 42.7655 18.3857 42.8529 18.2937C42.9403 18.2016 42.9878 18.0787 42.9848 17.9517V17.1283C42.9848 17.0556 42.9559 16.9857 42.9044 16.9343C42.8529 16.8828 42.7831 16.8539 42.7103 16.8539H39.1066C39.0692 16.8538 39.0321 16.8614 38.9976 16.8762C38.9632 16.891 38.9322 16.9127 38.9065 16.94C38.8808 16.9673 38.8609 16.9995 38.8481 17.0347C38.8353 17.0699 38.8299 17.1074 38.8322 17.1448Z" fill="#3F3F46"/>
<path d="M50.4613 24.6489C49.7203 23.5894 48.8145 22.401 49.0506 21.5062C49.2866 20.6115 50.0249 19.3599 48.5318 19.1788C47.0387 18.9976 46.7423 20.9134 47.0085 21.6352C47.3132 22.4586 48.8228 23.4934 50.1512 25.4778C51.4796 27.4621 49.7093 29.8966 48.9957 29.2269C48.4001 28.678 49.1823 27.4319 47.6892 24.8849C46.1961 22.3379 44.725 22.1018 42.823 18.5558C42.8051 18.5231 42.7789 18.4958 42.7471 18.4765C42.7153 18.4572 42.679 18.4467 42.6418 18.446H39.1589C38.5386 18.2621 38.297 22.014 38.2586 22.648C38.258 22.6588 38.2549 22.6694 38.2495 22.6788C38.244 22.6882 38.2365 22.6961 38.2274 22.702C38.2183 22.7079 38.2079 22.7116 38.1971 22.7127C38.1863 22.7138 38.1754 22.7123 38.1653 22.7084C37.7262 22.5355 35.7857 21.8027 35.5332 22.0524C35.2807 22.3022 34.3283 23.8913 34.9129 24.3936C35.4975 24.8959 35.6347 23.9902 35.6347 23.9902L35.9394 23.1668C35.9455 23.1493 35.9558 23.1336 35.9695 23.1211C35.9831 23.1086 35.9996 23.0997 36.0175 23.0951C36.0354 23.0904 36.0542 23.0903 36.0722 23.0947C36.0901 23.099 36.1067 23.1078 36.1205 23.1201C36.5652 23.529 38.0939 24.9014 38.9942 25.1127C39.0208 25.1185 39.0445 25.1336 39.061 25.1552C39.0776 25.1768 39.086 25.2035 39.0848 25.2307C39.0381 26.4 39.6748 28.4502 39.4086 30.4456C39.362 30.7914 38.6895 31.269 38.7938 31.7081C38.8515 31.9524 39.6364 32.0292 39.9219 31.8947C40.2073 31.7602 40.4516 31.3266 40.512 30.7639C40.5586 30.333 40.6986 28.4667 40.8276 28.0824C40.8332 28.0662 40.845 28.0528 40.8604 28.0451C40.8758 28.0374 40.8936 28.036 40.9099 28.0413C43.5119 28.7302 43.2072 28.7219 43.3527 29.2077C43.6271 30.1546 44.8046 30.4428 44.876 31.096C44.8979 31.2964 42.6034 30.8024 42.5046 31.2772C42.4058 31.752 42.6199 31.8892 42.6199 31.8892L48.702 31.8618C48.7557 31.8612 48.8072 31.8401 48.8459 31.8029C48.8847 31.7657 48.9078 31.7151 48.9106 31.6614L48.9353 30.5279C48.9353 30.4511 48.9353 30.3632 49.0506 30.344C49.5907 30.2159 50.0901 29.9542 50.503 29.5831C50.9158 29.212 51.229 28.7432 51.4137 28.2197C51.8007 26.9708 51.3012 25.8675 50.4613 24.6489Z" fill="#A1A1AA"/>
</svg>
