<svg width="380" height="287" viewBox="0 0 380 287" fill="none" xmlns="http://www.w3.org/2000/svg">
<path d="M124.397 127.462H72.0808V185.961H124.397V127.462Z" fill="#CCCCCC"/>
<path d="M45.4471 273.948H18.8133L15.9597 251.119H48.3007L45.4471 273.948Z" fill="#3F3D56"/>
<path d="M98.929 257.412L98.0302 269.699C97.9895 270.255 98.0682 270.814 98.261 271.337C98.4539 271.86 98.7564 272.336 99.1482 272.733C99.5401 273.13 100.012 273.438 100.533 273.638C101.054 273.837 101.611 273.923 102.168 273.889L108.479 273.507C108.772 273.489 109.056 273.407 109.314 273.267C109.571 273.126 109.794 272.931 109.967 272.695C110.14 272.458 110.259 272.187 110.316 271.899C110.372 271.612 110.365 271.316 110.294 271.031L106.79 257.019L98.929 257.412Z" fill="#E6E6E6"/>
<path d="M151.719 264.678C159.146 266.415 164.453 268.885 167.938 272.228C169.18 273.409 170.804 274.105 172.515 274.19C174.701 274.305 176.489 274.06 177.832 273.46C178.176 273.308 178.474 273.067 178.693 272.762C178.913 272.456 179.047 272.098 179.081 271.723C179.121 271.343 179.06 270.958 178.902 270.61C178.744 270.262 178.495 269.962 178.183 269.741L160.566 257.207L153.084 260.201L151.338 261.946C151.149 262.135 151.007 262.365 150.922 262.619C150.837 262.872 150.812 263.142 150.849 263.407C150.885 263.671 150.983 263.924 151.134 264.145C151.285 264.365 151.485 264.548 151.719 264.678Z" fill="#E6E6E6"/>
<path d="M128.86 64.0612L78.5063 63.5949C78.633 56.2608 80.3394 49.0589 84.0693 42.6143C86.519 38.3817 86.4661 33.7753 85.8758 29.8946C84.9647 23.9058 87.0832 17.7783 91.7909 13.966C95.3885 11.0476 99.929 9.54524 104.557 9.74203L105.535 9.78277C108.72 9.91512 111.82 10.8455 114.552 12.4884C117.284 14.1313 119.559 16.4341 121.168 19.1854C122.805 22.1225 123.464 25.5037 123.052 28.8405C122.733 31.9801 123.497 35.1516 125.283 38.3534C128.365 45.3841 129.033 54.3807 128.86 64.0612Z" fill="#2F2E41"/>
<path d="M162.549 257.861L152.667 260.439L104.544 155.599L107.551 257.861H97.6688C87.1087 209.749 68.0432 154.224 76.6149 136.693L127.746 133.686L162.549 257.861Z" fill="#10B981"/>
<path d="M104.114 46.4623C111.47 46.4623 117.434 40.4988 117.434 33.1424C117.434 25.7861 111.47 19.8226 104.114 19.8226C96.7574 19.8226 90.7939 25.7861 90.7939 33.1424C90.7939 40.4988 96.7574 46.4623 104.114 46.4623Z" fill="#FFB9B9"/>
<path d="M115.715 57.6337L93.8018 56.3447C95.9493 51.4157 96.8072 46.6692 95.9501 42.1656H112.278C112.241 45.6235 113.961 51.6051 115.715 57.6337Z" fill="#FFB9B9"/>
<path d="M129.465 137.553L81.3416 140.99L86.2826 55.7003L94.6613 53.337L104.114 55.4853L113.567 50.7588L119.582 52.9076L129.465 137.553Z" fill="#10B981"/>
<path d="M89.5052 198.996L56.6353 191.477C66.4092 159.065 84.0174 84.917 78.3337 58.4931L95.5206 50.759L89.5052 198.996Z" fill="#E6E6E6"/>
<path d="M73.6072 105.327L61.1467 97.5932L71.7733 66.47C72.9585 63.2585 75.2287 60.5621 78.1912 58.8469L81.771 56.7744L79.6226 88.1405L73.6072 105.327Z" fill="#E6E6E6"/>
<path d="M158.038 191.906C147.663 197.908 121.731 201.254 110.344 197.062C109.506 167.778 107.863 84.944 113.137 49.8997L132.043 57.6338L130.324 80.836C121.285 100.684 147.531 169.816 158.038 191.906Z" fill="#E6E6E6"/>
<path d="M156.534 101.46L144.932 97.5933L129.464 79.9765L132.043 57.6336L157.823 93.7262L156.534 101.46Z" fill="#E6E6E6"/>
<path d="M120.176 118.185C120.366 119.018 120.878 119.741 121.601 120.197C122.323 120.653 123.197 120.803 124.031 120.616L133.879 118.386L132.455 112.1L122.607 114.33C121.774 114.519 121.049 115.031 120.593 115.754C120.137 116.477 119.987 117.351 120.176 118.185Z" fill="#FFB9B9"/>
<path d="M115.715 29.705C108.317 26.6628 101.01 26.4427 93.8016 29.2754L90.7939 18.5336H118.293L115.715 29.705Z" fill="#2F2E41"/>
<path d="M129.035 110.913L134.621 121.225C144.016 118.605 152.158 110.344 159.971 100.601L157.823 93.7262L144.503 97.1636L129.035 110.913Z" fill="#E6E6E6"/>
<path d="M124.953 89.6443H123.234C123.234 65.336 118.229 48.3958 113.352 48.3958L112.922 46.6771C117.296 46.6771 120.085 53.7275 121.654 59.6422C123.781 67.6606 124.953 78.3155 124.953 89.6443Z" fill="#3F3D56"/>
<path d="M85.4233 83.6289H83.7046C83.7046 61.3663 88.7442 47.5365 96.1651 47.5365L95.7354 49.2551C90.6024 49.2551 85.4233 59.8839 85.4233 83.6289Z" fill="#3F3D56"/>
<path d="M124.094 94.3707C126.467 94.3707 128.39 92.447 128.39 90.074C128.39 87.701 126.467 85.7773 124.094 85.7773C121.721 85.7773 119.797 87.701 119.797 90.074C119.797 92.447 121.721 94.3707 124.094 94.3707Z" fill="#3F3D56"/>
<path d="M78.5485 93.941H76.8298C76.8298 87.7811 80.2993 82.7696 84.5639 82.7696V84.4883C81.247 84.4883 78.5485 88.7287 78.5485 93.941Z" fill="#3F3D56"/>
<path d="M92.2978 93.941H90.5791C90.5791 88.7287 87.8807 84.4883 84.5637 84.4883V82.7695C88.8283 82.7695 92.2978 87.7811 92.2978 93.941Z" fill="#3F3D56"/>
<path d="M91.4384 96.0894C92.3876 96.0894 93.1571 95.3199 93.1571 94.3707C93.1571 93.4215 92.3876 92.652 91.4384 92.652C90.4892 92.652 89.7197 93.4215 89.7197 94.3707C89.7197 95.3199 90.4892 96.0894 91.4384 96.0894Z" fill="#3F3D56"/>
<path d="M77.6889 96.0894C78.6381 96.0894 79.4076 95.3199 79.4076 94.3707C79.4076 93.4215 78.6381 92.652 77.6889 92.652C76.7397 92.652 75.9702 93.4215 75.9702 94.3707C75.9702 95.3199 76.7397 96.0894 77.6889 96.0894Z" fill="#3F3D56"/>
<path d="M56.2053 78.5663L66.9288 80.4811L91.4385 115.331L78.4174 112.268L56.2053 78.5663Z" fill="#10B981"/>
<path d="M54.3034 78.1397C54.14 78.1421 53.9802 78.1885 53.8408 78.2738C53.7015 78.3591 53.5876 78.4803 53.5111 78.6248C53.4346 78.7692 53.3983 78.9315 53.406 79.0947C53.4138 79.258 53.4652 79.4161 53.555 79.5527L76.4655 114.314C76.5933 114.508 76.7908 114.646 77.0172 114.699L87.6768 117.207C87.8565 117.249 88.0448 117.236 88.2168 117.169C88.3888 117.101 88.5363 116.984 88.6397 116.831C88.7431 116.678 88.7975 116.497 88.7958 116.312C88.7941 116.128 88.7363 115.948 88.6301 115.797L63.4759 80.0306C63.4076 79.9332 63.3209 79.8501 63.2205 79.7862C63.1202 79.7223 63.0083 79.6788 62.8911 79.6582L54.4752 78.1552C54.4185 78.145 54.361 78.1398 54.3034 78.1397Z" fill="#3F3D56"/>
<path d="M68.595 102.993L69.2317 109.407L79.2795 108.41C80.13 108.325 80.9121 107.906 81.4538 107.245C81.9955 106.584 82.2524 105.735 82.168 104.884C82.0836 104.034 81.6648 103.252 81.0037 102.71C80.3427 102.168 79.4935 101.912 78.643 101.996L68.595 102.993Z" fill="#FFB9B9"/>
<path d="M59.8579 102.25C59.8725 104.437 60.7508 106.53 62.3015 108.072C63.8522 109.614 65.9495 110.481 68.1364 110.483H69.7886L70.9914 100.46L61.0324 96.8745L59.8579 102.25Z" fill="#E6E6E6"/>
<path d="M313.687 0H210.481V103.206H313.687V0Z" fill="#E6E6E6"/>
<path d="M216.189 97.4987H307.98V5.70724H216.189V97.4987Z" fill="white"/>
<path d="M296.09 19.0241H230.457V84.6574H296.09V19.0241Z" fill="#E6E6E6"/>
<path d="M251.449 48.7811C257.082 48.7811 261.648 44.2145 261.648 38.5814C261.648 32.9483 257.082 28.3817 251.449 28.3817C245.816 28.3817 241.249 32.9483 241.249 38.5814C241.249 44.2145 245.816 48.7811 251.449 48.7811Z" fill="#FFB068"/>
<path d="M266.687 29.6239L247.041 40.4452C244.772 43.3549 287.893 43.5347 287.538 40.4559L268.487 29.6346C267.945 29.3266 267.234 29.3223 266.687 29.6239Z" fill="#10B981"/>
<path opacity="0.2" d="M266.687 29.6239L247.041 40.4452C244.772 43.3549 287.893 43.5347 287.538 40.4559L268.487 29.6346C267.945 29.3266 267.234 29.3223 266.687 29.6239Z" fill="black"/>
<path opacity="0.8" d="M287.456 79.2963L282.459 79.1898H248.192L238.753 78.9768C270.047 71.5809 260.425 72.2177 287.456 79.2963Z" fill="#F2F2F2"/>
<path d="M282.856 78.9767L282.459 79.1898H248.192C271.616 74.3546 257.573 74.7803 282.856 78.9767Z" fill="#E6E6E6"/>
<path d="M266.298 28.7205H267.773L267.276 25.9172C267.245 25.744 267.127 25.6826 267.036 25.6826C266.944 25.6826 266.826 25.744 266.795 25.9172L266.298 28.7205Z" fill="#3F3D56"/>
<path d="M267.785 37.9699H266.158V77.6305H267.785V37.9699Z" fill="#3F3D56"/>
<path d="M266.976 44.1612C266.282 44.1612 265.63 43.8926 265.137 43.4031L261.033 39.3286L261.368 38.9909L265.472 43.0654C265.88 43.4705 266.419 43.6917 266.997 43.6852C267.572 43.6798 268.109 43.4495 268.509 43.0368L272.431 38.994L272.773 39.3254L268.851 43.3682C268.361 43.8729 267.705 44.1545 267.001 44.1612C266.993 44.1612 266.984 44.1612 266.976 44.1612Z" fill="#3F3D56"/>
<path d="M267.545 41.0506C265.525 41.0506 263.49 41.0437 261.515 41.0297C257.329 40.9999 253.756 40.9411 251.181 40.8596C246.792 40.7207 246.745 40.5628 246.725 40.4954C246.72 40.4798 246.719 40.4496 246.76 40.4224L266.352 27.5386C266.823 27.228 267.429 27.2322 267.896 27.5497L287.703 40.433C287.744 40.461 287.742 40.4913 287.738 40.5069C287.713 40.5861 287.638 40.8271 278.941 40.9686C275.632 41.0225 271.622 41.0506 267.545 41.0506Z" fill="#10B981"/>
<path d="M271.317 60.1673L268.834 60.17C268.556 60.7879 268.936 61.5106 269.421 61.9829C269.907 62.4553 270.516 62.8177 270.875 63.3925C271.671 64.668 270.921 66.3455 271.184 67.8258C271.538 69.8192 273.627 71.0737 274.264 72.9956C274.624 74.0828 274.46 75.3308 273.832 76.2884C273.716 76.4652 273.582 76.6397 273.542 76.8472C273.486 77.1294 273.635 77.4393 273.889 77.573C274.144 77.7068 274.483 77.6534 274.685 77.448C274.488 77.6712 274.553 78.0481 274.773 78.2476C274.994 78.447 275.322 78.4895 275.613 78.4281C276.556 78.229 277.03 77.1399 277.069 76.1771C277.107 75.2142 276.865 74.2387 277.054 73.2937C277.174 74.6499 278.708 75.5111 278.828 76.8673C278.851 77.1187 277.462 77.8746 277.591 78.0913C277.918 78.6391 278.697 78.641 279.331 78.5753C280.423 78.4623 281.636 78.2863 282.321 77.4282C282.783 76.85 282.903 76.0719 282.918 75.3323C282.957 73.4013 282.382 71.4622 281.296 69.8652C279.85 67.7398 277.552 66.2334 276.417 63.927C276.031 63.1431 275.795 62.2931 275.42 61.5041C275.044 60.7152 274.492 59.9603 273.694 59.6063C272.895 59.2522 271.82 59.4268 271.359 60.169" fill="#3F3D56"/>
<path d="M279.016 77.1357C278.966 77.1357 278.918 77.1252 278.872 77.1039C278.837 77.0874 278.822 77.0452 278.838 77.0097C278.855 76.9743 278.897 76.9588 278.932 76.9754C279.011 77.0118 279.086 76.988 279.135 76.9615C279.237 76.9071 279.316 76.7958 279.333 76.6844C279.365 76.4692 279.258 76.2493 279.162 76.0553C278.885 75.4898 278.611 74.884 278.569 74.2439C278.523 73.5221 278.821 72.8498 279.328 72.5311C279.706 72.2942 280.205 72.2323 280.733 72.3565C281.186 72.4629 281.603 72.6862 282.026 72.9252C282.06 72.9444 282.072 72.9877 282.052 73.0217C282.033 73.0559 281.99 73.0679 281.956 73.0486C281.526 72.806 281.136 72.5968 280.701 72.4945C280.209 72.379 279.749 72.4346 279.404 72.6512C278.94 72.9426 278.668 73.5642 278.711 74.2348C278.75 74.849 279.019 75.4401 279.29 75.9929C279.389 76.195 279.512 76.4466 279.473 76.7056C279.449 76.8614 279.343 77.0108 279.202 77.0864C279.141 77.1192 279.078 77.1357 279.016 77.1357Z" fill="#2F2E41"/>
<path d="M274.885 61.401C275.249 62.124 275.057 63.0843 274.442 63.6113C274.31 63.7245 274.162 63.8192 274.044 63.9469C273.926 64.0746 273.839 64.2475 273.869 64.4188C273.466 64.0193 273.055 63.6089 272.812 63.0965C272.568 62.5842 272.521 61.9411 272.838 61.4707C272.989 61.2463 273.209 61.078 273.381 60.8687C273.553 60.6595 273.676 60.3746 273.584 60.1204" fill="#2F2E41"/>
<path d="M282.127 75.288C281.934 75.8769 282.252 76.5546 282.772 76.891C283.292 77.2275 283.964 77.2623 284.565 77.1101C285.726 76.8158 286.68 75.8214 286.926 74.6488C287.028 74.1611 287.021 73.6384 287.252 73.1971C287.398 72.9198 287.638 72.6692 287.645 72.3561C287.651 72.1016 287.485 71.8601 287.26 71.7417C287.035 71.6234 286.76 71.6192 286.518 71.6963C285.94 71.88 285.585 72.4655 285.401 73.0436C285.217 73.6217 285.148 74.2398 284.881 74.7843C284.614 75.3289 284.061 75.8044 283.46 75.7213C282.94 75.6494 282.5 75.1809 281.98 75.2447" fill="#3F3D56"/>
<path d="M253.088 67.9397C252.385 68.0474 251.871 68.4974 251.939 68.9448C252.008 69.3921 252.634 69.6673 253.337 69.5594C253.618 69.5202 253.886 69.4141 254.118 69.2501L259.203 68.484L259.395 66.7273L253.927 68.0006C253.656 67.9136 253.368 67.8927 253.088 67.9397Z" fill="#FFB6B6"/>
<path d="M265.898 64.277L264.745 66.7229L258.95 68.6735L259.233 66.6856L264.58 64.1587L265.898 64.277Z" fill="#E6E6E6"/>
<path d="M255.21 73.5641L254.176 76.1816L252.836 75.2685L253.628 72.5292L255.21 73.5641Z" fill="#FFB6B6"/>
<path d="M250.888 72.5901L248.149 75.2076L249.245 76.3642L252.045 74.1728L250.888 72.5901Z" fill="#FFB6B6"/>
<path d="M266.411 64.0679L266.381 63.8549L265.681 62.4852L263.367 63.094L263.794 64.981L266.411 64.0679Z" fill="#FFB6B6"/>
<path d="M265.437 73.1988L265.508 74.1131C265.508 74.1131 265.802 77.9469 263.428 78.2513C261.054 78.5556 260.019 78.86 258.619 76.4859L256.428 72.5901L255.148 74.1131L253.445 72.7727C253.445 72.7727 254.663 68.0246 255.636 67.842C255.758 67.8192 255.88 67.8078 256 67.8053C256.806 67.7885 257.566 68.1829 258.049 68.8292L260.811 72.5292L261.815 72.0727L265.437 73.1988Z" fill="#2F2E41"/>
<path d="M252.288 76.0598L252.904 75.1522L254.315 75.8224C254.315 75.8224 254.784 77.4599 254.236 77.6425C253.689 77.8251 252.167 77.5817 252.167 77.5817C252.167 77.5817 249.367 78.1904 249.306 77.6425C249.245 77.0947 250.584 76.9729 250.584 76.9729L252.288 76.0598Z" fill="#FFB6B6"/>
<path d="M258.254 75.3294L254.024 72.6637L251.863 74.5989L250.402 72.8944C250.402 72.8944 253.08 68.9377 253.871 68.7551C254.663 68.5725 255.941 68.4507 255.941 68.4507L259.837 72.0422L258.254 75.3294Z" fill="#2F2E41"/>
<path d="M248.444 74.974L249.339 76.2502L249.304 76.6439C249.304 76.6439 248.941 78.2258 248.088 77.6907C247.236 77.1555 247.175 77.0338 247.175 77.0338C247.175 77.0338 244.74 77.5816 244.497 76.6077C244.253 75.6337 244.923 75.8163 244.923 75.8163L245.531 76.1816L247.901 75.3893L248.444 74.974Z" fill="#FFB6B6"/>
<path d="M264.098 63.7636C265.174 63.7636 266.046 62.8914 266.046 61.8156C266.046 60.7398 265.174 59.8677 264.098 59.8677C263.022 59.8677 262.15 60.7398 262.15 61.8156C262.15 62.8914 263.022 63.7636 264.098 63.7636Z" fill="#FFB6B6"/>
<path d="M263.642 64.5853L266.442 63.7331C266.442 63.7331 267.537 66.2898 267.355 67.4464C267.172 68.6029 265.508 74.1131 265.508 74.1131L261.815 72.0727C261.815 72.0727 261.754 70.8552 261.572 70.3074C261.389 69.7595 260.811 68.0855 262.089 66.6854C263.368 65.2854 263.642 64.5853 263.642 64.5853Z" fill="#E6E6E6"/>
<path d="M257.479 77.3675C257.023 77.9134 256.935 78.5911 257.283 78.8811C257.63 79.171 258.281 78.9634 258.737 78.4172C258.922 78.2015 259.053 77.9447 259.118 77.6681L263.432 72.8311L262.095 72.1085L258.148 76.8582C257.887 76.9721 257.658 77.1467 257.479 77.3675Z" fill="#FFB6B6"/>
<path d="M265.789 65.8134L266.451 68.4351L263.212 73.6204L263.504 73.5537L261.734 72.253L262.168 71.9051L264.696 66.5584L265.789 65.8134Z" fill="#E6E6E6"/>
<path d="M262.302 61.4808C262.802 61.4796 262.83 61.483 262.911 61.4808C263.531 61.4645 263.693 61.2207 264.007 61.2373C264.567 61.267 263.827 64.0774 263.52 65.3767C263.218 66.6509 264.238 67.7928 264.311 67.8725C265.346 68.9982 267.164 69.2041 267.476 68.7247C267.729 68.3366 266.834 67.7466 267.05 66.8985C267.262 66.0694 268.238 66.1577 268.511 65.3767C268.797 64.5588 267.836 64.1462 267.233 62.1504C266.886 61.0043 266.948 60.7907 266.624 60.0808C265.76 58.1832 261.522 58.9911 261.998 60.7504C262.09 61.0907 261.845 61.4819 262.302 61.4808Z" fill="#2F2E41"/>
<path d="M271.359 17.5973H252.334V20.4509H271.359V17.5973Z" fill="#3F3D56"/>
<path d="M11.974 242.673C18.832 251.858 33.0679 252.824 33.0679 252.824C33.0679 252.824 36.1848 238.9 29.3268 229.716C22.4687 220.531 8.2328 219.565 8.2328 219.565C8.2328 219.565 5.11592 233.489 11.974 242.673Z" fill="#059669"/>
<path d="M46.9103 246.126C42.3848 252.187 32.991 252.824 32.991 252.824C32.991 252.824 30.9342 243.636 35.4597 237.576C39.9851 231.515 49.3789 230.877 49.3789 230.877C49.3789 230.877 51.4357 240.065 46.9103 246.126Z" fill="#059669"/>
<path d="M247.103 273.784H0V274.85H247.103V273.784Z" fill="#3F3D56"/>
<path d="M197.479 274.782H380V273.717H197.479C197.365 273.717 197.273 273.955 197.273 274.25C197.273 274.544 197.365 274.782 197.479 274.782Z" fill="#3F3D56"/>
<path d="M280.817 277.627C281.846 282.565 287.71 276.495 287.71 276.495L294.707 275.672C294.707 275.672 299.131 275.775 302.012 278.038C304.893 280.302 306.847 277.318 306.847 277.318C310.093 278.4 314.069 278.395 317.513 278.049C322.476 277.55 326.453 273.719 327.135 268.779C330.983 240.908 309.831 227.212 309.831 227.212L303.658 210.544C303.658 210.544 305.613 205.709 306.23 201.388C306.847 197.066 302.32 192.951 296.764 188.835C294.334 187.035 291.549 187.164 289.184 187.88C286.532 188.682 284.219 190.332 282.509 192.513C281.093 194.319 278.664 196.878 275.994 197.321C275.07 197.474 274.158 197.84 273.306 198.507C272.426 199.196 272.037 200.346 272.024 201.776C271.958 208.024 277.117 215.545 281.64 216.718C287.196 218.158 284.212 231.842 284.212 231.842C275.158 244.6 281.537 258.798 281.537 258.798L279.891 270.322C279.891 270.322 279.788 272.688 280.817 277.627Z" fill="#3F3D56"/>
<path d="M311.066 251.082L308.802 279.273C308.802 279.273 311.889 287.092 301.394 286.681C290.9 286.269 297.073 270.219 297.073 270.219L300.366 249.23" fill="#3F3D56"/>
<path d="M302.175 286.902C301.918 286.902 301.656 286.897 301.386 286.886C299.063 286.795 297.352 285.94 296.301 284.343C293.296 279.779 296.638 270.781 296.873 270.166L300.162 249.198C300.179 249.086 300.284 249.01 300.397 249.027C300.509 249.044 300.586 249.149 300.569 249.262L297.276 270.251C297.274 270.265 297.27 270.279 297.265 270.293C297.229 270.386 293.715 279.667 296.645 284.117C297.619 285.596 299.219 286.389 301.402 286.475C304.829 286.609 307.133 285.878 308.254 284.3C309.72 282.237 308.622 279.377 308.61 279.348C308.599 279.319 308.594 279.287 308.597 279.256L310.86 251.065C310.869 250.952 310.967 250.87 311.082 250.877C311.195 250.886 311.28 250.985 311.271 251.098L309.011 279.243C309.16 279.647 310.098 282.413 308.591 284.536C307.476 286.108 305.32 286.902 302.175 286.902Z" fill="#2F2E41"/>
<path d="M292.34 256.843C292.34 256.843 292.958 282.977 279.994 282.359C267.03 281.742 278.759 273.511 278.759 273.511L279.891 270.322" fill="#3F3D56"/>
<path d="M280.439 282.576C280.288 282.576 280.137 282.572 279.984 282.565C276.283 282.389 274.191 281.559 273.768 280.1C273.006 277.47 277.974 273.82 278.587 273.381L279.697 270.253C279.735 270.146 279.853 270.09 279.96 270.128C280.067 270.166 280.123 270.283 280.085 270.39L278.953 273.58C278.939 273.62 278.912 273.655 278.877 273.68C278.823 273.718 273.45 277.524 274.163 279.986C274.532 281.257 276.497 281.987 280.004 282.154C282.339 282.266 284.386 281.481 286.084 279.823C292.454 273.605 292.139 257.015 292.135 256.848C292.132 256.735 292.222 256.641 292.335 256.638C292.443 256.638 292.543 256.725 292.546 256.839C292.562 257.527 292.87 273.773 286.372 280.117C284.7 281.75 282.705 282.576 280.439 282.576Z" fill="#2F2E41"/>
<path d="M272.024 201.776C273.502 201.953 275.815 201.945 277.731 200.667C279.782 199.299 277.652 198.023 275.994 197.321C275.07 197.474 274.158 197.84 273.306 198.507C272.426 199.196 272.037 200.346 272.024 201.776Z" fill="#2F2E41"/>
<path d="M295.9 198.076C295.9 198.076 292.309 188.854 297.452 188.725C302.595 188.596 306.657 196.588 306.657 196.588C306.657 196.588 319.565 220.117 301.88 218.848C284.196 217.579 292.646 208.187 292.646 208.187C292.646 208.187 296.68 203.228 295.9 198.076Z" fill="#2F2E41"/>
<path d="M315.601 266.991C317.878 268.005 320.258 269.038 322.748 268.939C325.239 268.841 327.86 267.237 328.248 264.774C328.449 263.503 328.051 262.14 328.538 260.948C329.193 259.346 331.305 258.728 332.947 259.277C334.589 259.826 335.795 261.242 336.66 262.742C338.278 265.548 338.926 269.231 337.191 271.967C335.687 274.338 332.835 275.409 330.181 276.328C326.647 277.553 322.701 278.768 319.277 277.264C315.832 275.752 313.956 271.382 315.232 267.843" fill="#3F3D56"/>
<path d="M308.003 222.559C308.003 222.559 312.53 224.822 310.266 227.292C308.003 229.761 294.01 236.757 288.866 235.728C283.721 234.699 282.487 231.613 282.487 230.79C282.487 229.967 282.875 220.01 284.521 220.422C286.167 220.833 296.479 230.172 308.003 222.559Z" fill="#10B981"/>
<path d="M215.14 274.533L241.487 273.785C241.487 273.785 239.504 261.921 245.866 258.629C250.203 256.384 254.052 245.895 252.957 238.757C252.942 238.662 252.927 238.567 252.911 238.474C252.356 235.279 250.769 232.804 247.736 232.132C237.93 229.961 230.932 231.644 230.932 231.644C230.932 231.644 229.312 231.665 226.912 232.115C226.827 232.13 226.741 232.147 226.655 232.165C219.861 233.497 207.301 238.238 206.757 255.071C206.009 278.198 215.14 274.53 215.14 274.53V274.533Z" fill="#3F3D56"/>
<path d="M226.912 232.117C226.957 233.324 227.231 234.523 227.73 235.662C228.765 238.025 230.653 239.83 233.044 240.744C240.206 243.485 248.563 240.766 252.789 237.819C252.806 237.912 253.141 239.679 253.156 239.774C251.285 241.055 242.125 242.29 240.388 242.29C237.749 242.29 235.21 241.852 232.951 240.986C230.495 240.046 228.556 238.191 227.493 235.765C226.985 234.607 226.705 233.391 226.655 232.165C226.741 232.147 226.826 232.13 226.912 232.115V232.117Z" fill="#10B981"/>
<path d="M224.964 233.653L229.163 223.093C229.163 223.093 224.123 214.453 228.083 213.494C232.044 212.534 236.124 217.693 236.124 217.693C236.124 217.693 243.684 215.053 246.563 217.213C246.563 217.213 251.363 210.493 254.242 211.813C257.123 213.133 253.218 222.647 253.218 222.647C253.218 222.647 259.161 231.372 254.601 236.411C250.041 241.452 232.882 245.531 224.963 233.651L224.964 233.653Z" fill="#3F3D56"/>
<path d="M319.262 274.917H154.096V273.852H319.262C319.364 273.852 319.448 274.092 319.448 274.384C319.448 274.677 319.364 274.917 319.262 274.917Z" fill="#3F3D56"/>
<path d="M215.958 268.213C214.527 268.85 213.034 269.498 211.47 269.437C209.906 269.375 208.262 268.368 208.018 266.822C207.891 266.024 208.141 265.169 207.835 264.42C207.424 263.415 206.098 263.026 205.068 263.37C204.036 263.715 203.28 264.605 202.737 265.545C201.72 267.307 201.314 269.619 202.403 271.336C203.348 272.824 205.139 273.498 206.804 274.075C209.023 274.844 211.5 275.606 213.65 274.662C215.812 273.712 216.991 270.969 216.19 268.748" fill="#3F3D56"/>
<path d="M239.613 228.907C239.613 228.907 242.198 227.873 243.876 229.166L241.937 232.138L239.612 228.909L239.613 228.907Z" fill="#10B981"/>
<path d="M253.178 242.47L248.399 267.921C248.399 267.921 255.633 275.286 246.332 275.155C237.031 275.027 239.744 270.247 239.744 270.247L242.715 248.155" fill="#3F3D56"/>
<path d="M246.566 275.343C249.086 275.343 250.609 274.766 251.097 273.625C251.985 271.547 249.093 268.379 248.598 267.858L251.812 248.831L251.445 248.77L248.199 267.983L248.266 268.05C248.3 268.083 251.607 271.485 250.754 273.478C250.317 274.502 248.832 275.003 246.334 274.967C242.861 274.919 240.623 274.191 239.859 272.863C239.172 271.668 239.898 270.349 239.906 270.336L239.922 270.305L239.928 270.269L241.995 254.896L241.626 254.846L239.563 270.185C239.44 270.418 238.798 271.761 239.533 273.046C240.377 274.517 242.663 275.289 246.328 275.34C246.408 275.34 246.486 275.34 246.564 275.34L246.566 275.343Z" fill="#2F2E41"/>
<path d="M241.036 242.47L236.256 267.921C236.256 267.921 243.49 275.286 234.189 275.155C224.888 275.027 227.601 270.247 227.601 270.247L230.573 248.155" fill="#3F3D56"/>
<path d="M234.424 275.343C236.943 275.343 238.467 274.766 238.954 273.625C239.843 271.55 236.956 268.387 236.457 267.86L238.377 257.618L238.01 257.549L236.055 267.981L236.124 268.05C236.158 268.083 239.465 271.485 238.612 273.478C238.174 274.502 236.688 275.004 234.191 274.967C230.717 274.919 228.477 274.191 227.715 272.859C227.028 271.66 227.756 270.349 227.763 270.336L227.782 270.305L230.758 248.177L230.389 248.127L227.423 270.185C227.3 270.418 226.657 271.761 227.393 273.046C228.236 274.517 230.523 275.289 234.188 275.34C234.268 275.34 234.346 275.34 234.424 275.34V275.343Z" fill="#2F2E41"/>
</svg>
